# xmcd CD database file
#
# Track frame offsets:
#	150
#	11605
#	29220
#	48510
#	62752
#	78742
#	94140
#	106250
#	123555
#	144442
#
# Disc length: 2124 seconds
#
# Revision: 3
# Processed by: cddbd v1.5.2PL0 Copyright (c) Steve Scherf et al.
# Submitted via: CDex 2.21
#
DISCID=8b084a0a
DTITLE=Dolly Parton - I Will Always Love You (And Other Greatest Hits)
DYEAR=1996
DGENRE=Country
TTITLE0=Why'd You Come In Here Lookin' Like That
TTITLE1=Yellow Roses
TTITLE2=White Limozeen
TTITLE3=Eagle When She Flies
TTITLE4=Romeo
TTITLE5=Rockin' Years
TTITLE6=To Daddy
TTITLE7=Silver And Gold
TTITLE8=He's Alive
TTITLE9=I Will Always Love You
EXTD=YEAR: 1996
EXTT0=
EXTT1=
EXTT2=
EXTT3=
EXTT4=
EXTT5=Duet with Ricky Van Shelton
EXTT6=
EXTT7=
EXTT8=
EXTT9=
PLAYORDER=
